<?xml version="1.0"?>
<svg xmlns="http://www.w3.org/2000/svg" version="1.2" baseProfile="tiny" width="800" height="313" viewBox="0 0 800 313" stroke-linecap="round" stroke-linejoin="round">
<g id="cornbelt_states">
<path d="M 344.2324 121.7623 349.3594 121.8029 354.182 121.8915 361.1226 121.9739 366.7664 122.0265 376.2858 122.1565 391.1791 122.3429 397.0913 122.3628 407.7363 122.3131 414.032 122.2721 421.5648 122.1433 427.6986 122.0725 430.1789 122.0663 436.0617 121.9607 440.4727 121.9814 447.9752 121.9449 453.1441 121.86 461.1871 121.6575 468.8147 121.6091 471.7434 121.5718 476.1503 121.4749 480.1132 121.3602 486.4656 121.2405 496.19 121.074 502.3474 120.9232 505.632 120.816 511.4005 120.5849 512.1082 121.3548 513.069 121.8368 513.1974 122.111 512.987 122.8109 513.3635 123.0946 515.7055 123.4897 515.9606 123.6727 515.828 124.5855 516.0455 125.0928 516.9694 125.4982 517.2908 125.82 517.5612 126.4913 518.2449 126.9067 519.7044 126.9891 519.8928 127.4265 519.4994 127.7429 520.1015 128.1363 519.7889 128.6096 519.8696 128.9869 521.3609 129.4321 521.5303 130.0993 523.3223 130.002 524.2259 130.3329 523.1736 130.9578 522.4567 131.8176 522.0554 132.8558 521.1899 134.4759 521.2814 135.2512 520.6196 136.212 520.7033 137.7874 520.3517 138.4997 520.5484 139.4683 520.4022 139.9065 520.4614 140.6975 521.081 143.0598 521.3191 143.6197 521.1008 144.4885 523.0738 147.6753 524.1261 148.774 524.1655 149.524 523.2283 150.4053 523.0489 151.0526 523.5372 152.3961 523.8077 152.7154 525.9425 153.8141 526.3567 154.2643 526.6147 154.8987 526.2722 157.0754 526.987 157.7894 528.95 159.0865 529.0689 159.2658 530.1597 159.8402 531.6055 161.3183 532.6238 161.9374 533.8961 162.3516 534.3628 162.8407 534.6208 164.016 535.4553 164.8082 537.4415 165.1027 538.4768 166.5869 538.9328 166.927 539.1341 167.9946 540.0108 168.8403 541.8529 169.8955 542.7363 170.2608 543.7368 170.5358 544.1874 170.8132 544.3286 171.1723 544.8682 171.5218 545.4058 171.6411 545.9947 172.1989 547.4305 172.8603 548.2174 173.313 549.1807 174.1388 550.1493 174.5943 550.2649 174.8672 550.8861 175.2855 551.2182 175.8152 551.8829 176.4194 552.401 176.566 552.9025 177.01 553.3113 178.5531 553.2993 179.2364 553.5858 180.1077 553.6409 180.9882 554.0008 181.8028 554.5976 182.5342 554.803 183.2461 554.7347 183.753 553.5005 185.0488 553.5403 185.4737 554.9231 187.7494 555.0159 188.9798 555.6184 190.5183 556.508 191.2108 557.1209 192.0233 558.8491 192.8359 559.5461 192.8433 560.4792 192.5865 561.6002 191.6021 561.9941 191.4386 562.8422 190.4773 563.0307 189.712 563.4572 189.1165 564.3398 188.7471 566.1802 188.9628 567.1427 189.2569 568.6621 189.864 570.194 190.5544 571.26 190.5573 572.6457 190.7523 573.7726 191.2472 574.8257 192.0647 576.1179 192.5327 576.7349 192.9137 578.3161 193.6525 578.4909 194.1437 578.1347 195.4565 577.9111 195.7754 576.1179 196.8273 575.4138 197.8958 574.511 198.5046 574.2294 199.3494 574.3453 199.7221 574.9251 200.3516 575.447 201.271 575.6499 202.207 575.6043 202.7702 575.0659 204.0209 574.6228 204.4475 573.7241 205.0107 572.2291 206.9447 571.4464 209.2597 571.1979 210.4607 570.7792 211.1524 568.5255 213.1874 568.253 213.9022 567.7601 214.7347 567.5821 215.4345 567.5237 217.1532 567.9378 219.0376 568.3532 219.9694 569.1666 220.96 569.6598 221.3054 570.9681 221.7667 571.6236 222.2985 572.941 224.1596 573.9519 224.9179 575.8772 225.9416 576.4442 225.7309 577.593 226.244 577.7835 227.1402 578.4325 227.7262 579.1262 228.0873 580.6378 228.231 580.8825 228.6774 581.6673 229.022 582.6637 230.0607 583.1296 230.3485 583.8825 230.3667 585.4074 230.0632 586.0994 230.7254 585.1867 231.2965 584.6806 231.3023 584.0482 231.8605 584.0772 232.1711 584.9767 233.662 586.1909 234.1818 587.0751 234.217 587.9183 233.8123 588.6853 233.0951 589.4374 232.7364 591.3735 233.8099 591.2774 234.2662 591.4542 234.6443 592.7327 234.9641 593.1932 235.1885 593.7825 235.1649 594.2149 235.6557 595.3161 236.4123 596.691 237.1118 597.0745 237.6758 596.7593 238.7866 596.8604 239.0926 597.5238 239.3655 598.8594 239.1908 598.9294 239.496 599.7171 239.8878 600.2658 240.7007 600.9541 240.9521 602.6509 241.3145 603.2191 241.8495 603.0476 242.5763 602.9826 243.6842 603.4448 244.3538 604.611 245.438 604.6462 245.976 603.9629 246.2145 603.0315 246.0331 602.8356 246.2622 602.8087 247.0171 603.0352 248.0599 603.7069 248.9963 604.0457 249.7807 604.9092 250.9212 605.747 251.6004 606.4444 252.562 606.9273 253.7929 606.9451 254.4803 606.6908 255.4896 606.3653 255.975 605.5917 256.1886 604.7696 256.235 604.0813 256.5166 603.2261 257.3669 602.9569 258.4159 603.1408 258.7613 604.1343 259.8318 604.9373 259.7469 605.3444 259.8621 605.4434 260.2849 605.0624 261.0523 605.296 261.9766 606.2729 263.5599 606.4001 263.9409 607.2586 265.0607 608.5134 265.9627 608.8679 266.6804 608.4712 267.8479 608.7573 268.5991 609.415 268.9905 610.7088 269.4137 611.2881 269.7107 612.3251 270.563 612.8842 270.7087 613.3973 270.3928 613.7547 269.5976 613.6558 269.275 612.9219 268.7428 611.9425 268.3767 611.5511 267.8417 611.6791 267.3551 613.6582 267.5861 613.8657 267.2573 614.5565 268.4649 615.0854 268.9524 615.9319 269.4092 616.2031 269.7542 616.4678 271.0682 616.7415 271.3362 617.3826 271.4695 618.919 270.9825 619.2437 270.9229 619.8885 271.2103 620.299 271.7081 620.2505 272.5587 619.8935 273.5497 619.5543 274.9044 618.7095 276.5613 618.0659 276.5924 617.2414 276.8736 617.0148 277.2231 617.0757 278.2212 617.3387 278.6001 617.9674 278.9725 619.0843 279.0325 619.5841 279.5324 619.4868 280.1871 619.1998 280.5213 617.9218 280.3457 617.5118 280.1942 616.7817 280.4422 616.2313 281.0316 616.1621 281.999 617.4029 283.1242 617.436 283.8278 617.8352 284.0572 616.6479 285.1025 616.2379 285.6065 616.0325 286.7396 615.579 287.6284 615.0092 288.0731 613.7253 288.2566 613.322 288.0926 612.2212 287.0647 611.4438 285.9718 610.8922 285.4719 609.6589 285.6272 608.8745 286.154 608.5718 287.4842 608.0272 288.4761 607.9121 289.1934 607.0391 291.1991 606.3355 292.0054 605.6596 292.55 604.6884 292.692 604.1028 292.374 603.9546 291.9416 604.2668 291.1556 605.0139 290.0647 605.1473 289.4489 604.8205 288.4649 604.3443 287.9721 602.5743 287.5857 601.5364 287.7501 600.9492 288.2868 600.7661 288.9859 601.2175 289.8929 602.2868 291.3014 602.7776 291.7209 602.8998 292.3131 602.5871 292.9529 601.8503 293.6421 601.963 294.2554 603.1383 295.7136 603.3139 296.1799 602.9296 297.2165 602.3987 297.6037 601.2134 297.6658 600.3354 297.4749 599.1323 297.5544 598.736 298.2763 599.0856 298.8527 600.4659 299.7129 601.4681 300.1507 601.8611 300.0384 602.245 300.4493 602.2773 301.193 601.8636 301.4043 601.3149 301.2568 600.0998 301.7356 599.1137 301.7443 598.0514 301.3794 597.4 301.2713 596.3427 301.3711 595.6312 301.1852 595.2163 301.8561 595.7389 302.3369 598.0473 303.8282 599.2852 304.5641 599.8977 305.4363 599.8235 306.3859 599.4947 306.7056 598.4031 307.2283 596.8169 307.6859 596.2607 308.2371 595.9617 310.2432 595.7468 310.8039 595.1467 311.6128 587.0925 311.6799 578.7091 311.7304 577.7769 311.7527 567.3597 311.8323 568.4604 310.5401 568.9562 309.7023 569.208 308.8579 569.8196 308.5262 569.7915 307.9269 570.5891 307.5849 570.8136 306.9757 572.4242 306.3901 573.2529 305.8774 573.262 305.0623 573.8811 304.0017 574.3217 304.116 575.437 303.159 576.5519 302.7879 577.1188 302.2309 577.7761 302.1543 577.793 301.5724 578.2503 300.6543 579.542 300.3751 579.7457 299.7034 580.3599 299.1033 579.6973 298.4581 579.8041 297.5312 580.3785 296.8723 580.2704 295.6564 579.6786 295.0563 578.4751 294.9193 577.0567 294.0761 577.4543 293.5721 577.1536 292.6084 577.1176 292.1002 576.3763 291.7192 576.6948 291.0313 573.5283 291.0388 562.5275 291.0139 554.3093 291.0081 543.2253 291.0115 536.3556 291.0413 524.8264 291.0657 519.3619 290.9812 513.7515 290.9688 500.77 291.0115 495.1953 290.9936 485.6755 291.038 478.7776 290.9986 476.8146 291.0193 468.1968 291.0388 463.1439 291.0346 455.9329 291.0189 453.5512 291.0355 441.0848 291.0052 428.9961 290.9804 422.8722 290.9965 412.7379 291.0044 402.3956 290.963 395.8406 290.9792 391.7638 290.9709 391.7684 286.2832 391.7448 276.5626 391.7622 270.2847 391.7473 262.4218 391.7808 253.2222 391.8106 248.6418 391.7613 240.3313 391.7721 238.2279 391.8939 231.5507 391.927 227.2955 391.932 222.6232 391.9738 220.5135 391.9812 215.7874 391.9523 212.1185 392.0148 203.1288 392.1904 194.5533 392.161 188.1652 392.2148 182.4671 392.923 181.5974 392.8402 180.9927 391.8504 180.7857 390.8482 181.0714 389.9201 180.8851 389.8625 179.9947 388.893 179.8125 387.779 180.355 386.8513 180.4047 385.7497 179.9615 385.2362 179.1043 384.7475 178.8115 383.7403 178.8562 383.238 178.7204 382.7779 178.1418 383.1605 177.4009 382.9199 176.7988 382.3049 176.2931 380.9797 175.7688 380.0797 174.9799 379.748 174.0079 379.6412 172.9862 379.9783 172.4872 380.4574 172.336 380.9478 171.8527 380.7018 171.2688 380.0064 171.1445 379.1247 171.4887 378.6882 171.4448 378.1942 171.1011 378.1648 170.6124 376.9091 169.7406 376.8184 169.3455 376.3475 168.9335 375.2853 168.6593 374.5568 168.3251 373.9886 167.7416 373.8764 166.9365 373.478 166.4507 372.7333 166.1438 371.6794 165.3238 371.2375 164.4711 371.4905 163.647 372.2335 163.3492 372.7644 163.5261 373.584 163.3683 374.0172 162.4969 373.6565 161.6666 373.8896 160.9948 374.7958 159.8531 375.5669 159.4261 376.5968 159.3395 377.2251 158.7142 377.1655 157.092 377.792 156.53 378.4576 156.7002 379.3231 157.2299 379.9737 157.42 381.0907 157.1595 381.6166 156.6418 381.7077 155.8094 381.4427 155.4533 380.8513 155.4711 380.1166 155.8852 379.3865 155.8985 378.663 155.3725 378.7263 154.849 379.0216 154.7053 380.3734 154.6494 380.7411 154.5198 381.0617 153.9955 381.0327 153.2973 380.6231 152.91 379.3811 152.7841 378.5222 152.2188 378.3188 151.9368 378.7789 151.2742 378.9264 150.7147 378.265 150.2169 377.6268 150.0703 376.343 150.2633 375.7822 150.1229 375.1643 150.2484 374.8657 150.6882 374.7837 151.3189 374.3762 151.5666 372.564 151.7248 370.6324 151.2096 370.1177 150.8977 369.9851 150.0599 369.3213 149.8504 368.5087 150.137 367.9136 150.1109 367.4204 149.797 367.6047 148.7235 366.8207 148.2994 365.944 148.2779 365.2702 147.8662 364.7633 147.2653 363.4123 146.6458 363.173 145.9981 363.0106 145.6092 362.0155 145.2071 361.5876 144.8273 360.8666 144.6935 360.0806 144.8753 359.2647 144.732 358.8121 144.4069 358.4787 143.5567 358.9666 142.9202 358.9343 142.2075 359.6623 141.3941 359.6503 141.0611 359.1931 140.6549 358.5802 140.5898 358.0902 140.266 357.8695 139.4249 356.859 138.9921 356.215 138.4612 355.9657 137.6876 356.3322 137.157 356.4875 136.5594 356.1653 135.9461 355.634 135.6873 354.3253 135.6666 352.9839 135.0901 353.0266 133.94 352.4116 133.61 351.8463 133.5913 350.6598 132.9954 349.2149 133.3383 348.7179 133.1242 348.867 132.6388 349.6919 132.3605 350.152 131.8818 349.969 131.3873 349.3358 130.682 349.2728 129.9771 348.5468 128.772 348.761 128.2415 348.6823 127.6981 348.1211 127.0844 347.2353 126.5584 347.0849 126.1671 347.169 125.5562 346.952 125.0729 348.5373 124.5743 348.9279 123.7129 348.1207 122.6974 347.193 122.9331 347.0663 124.1117 346.595 124.3987 346.0214 124.1266 345.4081 124.3001 344.5856 124.2148 344.0816 123.7729 344.316 123.2909 343.9048 122.0526 344.2324 121.7623 Z"/>
<path d="M 524.2259 130.3329 524.4914 130.1664 525.5122 130.0566 526.0345 129.7688 526.1185 128.6916 525.8187 127.9669 525.9355 127.0972 526.4834 125.9467 526.5124 125.2895 526.3115 124.7722 525.5243 123.9216 524.7734 123.5228 524.9689 122.8287 525.8688 122.2079 526.6921 121.0752 527.1535 120.7485 528.9016 120.0635 531.3313 119.5599 533.8522 119.605 535.8785 118.6281 536.4633 118.286 536.9599 117.1318 536.8025 115.966 537.1147 114.8992 537.6146 114.2283 537.7981 113.7073 537.5848 112.3858 537.8656 111.8466 539.2587 110.863 539.7466 110.036 540.7028 109.3874 541.2006 108.702 541.6578 108.3893 542.88 107.9334 543.1313 107.6919 543.5848 106.3137 543.3293 105.422 543.8341 104.3151 543.9874 103.1472 543.702 101.66 543.806 100.5824 543.0079 99.6328 542.8029 99.1959 542.0239 98.1353 541.2814 97.7021 540.4688 97.8185 539.8754 97.7038 538.8665 96.3214 536.889 94.587 536.8667 94.2295 537.4071 93.5197 537.7844 92.7022 538.3857 92.0843 538.563 91.6035 538.6326 90.518 538.9013 89.2984 539.4596 88.6283 539.6153 87.5673 540.4448 87.0414 541.3534 86.9366 542.2211 86.616 542.624 86.6115 543.6751 87.0182 544.4939 87.1325 545.7176 86.7287 547.4951 85.8341 548.3292 85.7153 550.807 85.8958 552.4652 85.9426 553.9718 85.7517 554.9956 85.4995 555.8487 85.4457 556.8136 84.7582 557.9152 84.1163 558.3584 83.4205 559.518 83.1514 559.9735 82.8739 560.6076 82.7952 562.2765 83.1306 563.3657 83.0602 563.9 82.9029 565.0885 81.8261 565.5234 81.6315 565.9127 81.1718 566.5297 80.886 567.9295 80.5796 568.7951 80.24 568.9483 79.7927 568.786 77.7912 569.1558 76.4411 569.977 75.8087 570.0338 75.2016 569.864 74.8355 569.9551 74.1757 570.4703 73.5226 571.4704 72.8049 572.1057 72.6082 573.8049 71.7377 575.225 71.3223 575.5285 70.9571 575.3906 70.0836 575.8445 69.076 575.9675 68.2875 576.6492 67.0381 576.7312 66.028 576.2239 65.4511 576.2947 64.7736 576.9536 63.9436 577.2091 63.0358 576.732 61.9019 576.1978 61.4269 576.0371 60.0321 576.2425 59.5422 576.2632 58.3366 575.929 57.9854 575.2457 57.9763 574.6688 57.7477 574.3342 56.8474 572.6507 56.0692 571.3238 55.7636 569.8495 55.1448 569.4146 54.8442 568.2265 54.6624 566.8122 53.8329 566.4171 53.2605 565.6435 52.6319 565.1651 51.6479 565.7839 49.8062 565.1788 49.2198 564.6272 48.4594 563.7608 47.8701 563.2435 47.2762 562.8348 47.2203 562.2972 46.7896 560.3119 46.062 559.8936 45.736 559.7996 45.2424 559.373 44.8779 557.8991 44.4721 557.1536 44.1656 555.9237 43.3539 555.845 42.8073 556.3871 42.1123 559.9892 42.1525 566.1984 42.1782 579.9586 42.121 584.8611 42.2304 596.7755 42.2581 602.783 42.3852 609.4498 42.4631 614.0384 42.5468 621.4772 42.6205 624.7315 42.6283 633.2578 42.7957 639.3882 42.6689 648.551 42.6863 654.5863 42.678 655.48 42.6366 661.0626 42.6201 667.0266 42.7112 674.1001 42.7981 674.1999 43.6347 673.9804 45.7509 673.8975 47.2377 673.256 48.196 672.8365 49.4906 672.68 50.6833 672.9367 51.992 673.6118 53.5699 674.117 54.5555 676.536 57.8599 677.2401 58.7089 677.8074 59.2224 678.9919 60.0342 679.4433 60.7548 679.546 61.9636 681.1209 65.9398 681.4067 67.1366 681.9198 67.6965 681.7297 68.5985 682.0113 69.58 682.3799 70.3421 683.1916 71.2739 683.3821 72.0317 684.0323 72.86 684.7699 73.4357 685.271 73.5968 685.5444 74.6011 685.5485 75.2496 685.5112 75.4852 685.5236 81.2546 685.481 85.1082 685.4942 88.8118 685.4354 92.2355 685.4379 99.5533 685.4764 110.6158 685.4619 115.4806 685.4553 123.8247 685.4338 126.8578 685.2996 135.6169 685.242 139.8676 685.1679 150.8381 685.1899 159.8771 685.2458 169.3281 685.2333 173.0044 684.7215 172.7965 684.2912 173.3109 683.3001 173.3171 682.8549 173.5867 682.3861 174.4535 682.5046 175.1372 681.9865 175.7237 682.1733 176.5979 682.6723 177.164 683.0848 177.3243 683.4563 178.3671 682.8744 179.2194 681.5413 180.1732 680.7283 180.507 680.4981 181.411 680.6161 182.0877 681.0675 182.4961 681.0671 182.9889 681.6105 183.2473 681.7136 183.6871 682.553 184.1137 683.5379 185.0393 683.4368 186.0013 683.6575 186.608 683.2674 187.3452 683.3006 187.8761 685.3224 188.5748 686.0393 189.2995 685.7643 190.5925 685.3994 191.2348 684.7181 191.7566 684.4523 193.228 685.4719 193.6741 685.6462 194.5939 685.4118 194.9442 686.6874 196.5821 686.5876 197.4436 686.6894 198.0664 685.8521 199.1597 685.732 199.952 685.2507 200.497 684.6581 200.7633 682.6644 201.1861 681.5695 202.342 681.4763 203.1959 681.27 203.7521 681.4133 204.2267 680.8393 204.4533 680.2686 205.2956 680.303 205.7897 679.8876 206.4171 680.1593 207.6256 679.7646 207.9975 679.1571 208.1834 678.5433 208.6141 677.6795 208.952 676.6246 209.1512 676.4735 209.8159 677.0135 210.3336 676.5617 210.7867 676.3873 211.8875 674.9482 213.4678 673.8686 213.7867 673.179 214.4588 672.7649 215.3724 672.8382 216.4277 672.4228 217.2257 671.8571 217.4212 671.3763 216.8165 671.6165 216.1792 671.2669 215.893 670.7716 216.2471 670.4817 217.0103 669.6249 217.7028 669.1797 217.3992 669.5918 216.5788 668.9445 216.4571 668.4326 216.7151 668.228 217.2721 667.8284 217.468 668.071 218.2519 667.6536 218.4039 667.4846 219.0057 666.588 218.2055 666.3014 218.5244 666.4903 220.1305 666.8386 220.6328 667.5144 221.1898 668.4396 221.6947 668.58 222.3519 668.8409 222.5329 668.0955 223.5819 667.6648 223.3218 667.1893 223.3533 666.8953 223.8213 666.9048 224.213 665.9072 224.3327 665.2938 224.5381 665.1443 224.7978 665.3348 225.2944 665.6425 225.3486 667.4022 224.6823 667.6229 225.1697 667.1943 226.0468 665.7821 226.6912 664.374 226.7078 664.1044 227.2445 664.5583 227.5539 665.107 227.3866 665.5212 227.6189 664.871 228.1863 664.931 228.993 665.3166 229.7757 665.3017 230.2114 664.9729 230.5092 664.3177 230.6119 664.3413 231.1966 662.9817 231.7843 663.1374 232.1521 665.0064 232.4329 665.2843 233.1804 664.7368 233.339 663.5441 233.3299 662.8782 233.1406 662.2656 232.7306 661.9045 233.2284 662.5849 233.8318 663.0475 234.7872 663.4526 235.1252 664.4577 235.3724 664.7447 235.8201 664.1694 236.1833 663.3436 236.1622 662.3721 235.859 662.0735 236.0951 662.3915 236.6571 662.9829 237.0679 664.3686 236.7142 664.6763 237.1408 664.3533 237.4431 664.0729 238.4702 663.769 239.0102 663.195 239.6496 660.6592 240.9562 660.2761 241.6019 659.8144 241.9709 659.2031 243.0062 659.3422 244.0329 659.9473 245.2363 660.0405 245.9524 660.3122 246.4568 661.4647 247.206 662.1907 248.0782 662.9788 248.4848 663.2989 249.316 663.1817 249.8635 662.2068 250.7311 661.8689 250.65 660.2405 250.7075 658.5782 251.0322 656.5187 251.2973 655.2688 251.3238 654.1721 251.4956 652.892 251.993 652.0389 252.5471 651.4086 253.2296 650.8636 253.5527 649.3818 252.7778 648.9068 252.6295 647.6428 252.994 646.9525 253.3228 646.0998 254.2178 645.6707 256.1754 644.654 257.8763 644.4701 258.4763 644.8429 259.1961 644.7439 259.3837 645.7523 260.2683 646.3002 261.1223 647.2937 261.8106 647.9675 263.6009 648.2611 263.9268 647.4685 265.7176 647.4246 266.1561 646.8303 267.1832 646.1188 267.4143 644.2424 267.5236 643.2501 267.3406 641.953 266.6842 641.4357 266.1126 640.5151 265.5705 639.7212 265.2285 639.1306 265.1523 637.354 264.4673 636.7419 264.3318 636.0101 264.4151 635.5181 264.2776 633.7021 263.2497 633.2466 262.8438 632.4692 262.4293 631.2546 262.1021 629.8266 261.5546 627.8636 260.9508 626.8208 260.7636 625.1166 260.769 624.3832 260.9463 623.8436 261.2904 623.1818 261.4954 621.2668 262.9867 620.5748 263.7607 619.8186 265.3092 618.8354 265.9623 618.3521 266.4829 618.0249 266.5574 617.1461 267.669 616.8649 268.6956 617.0115 269.3727 617.53 270.1012 618.919 270.9825 617.3826 271.4695 616.7415 271.3362 616.4678 271.0682 616.2031 269.7542 615.9319 269.4092 615.0854 268.9524 614.5565 268.4649 613.8657 267.2573 613.6582 267.5861 611.6791 267.3551 611.5511 267.8417 611.9425 268.3767 612.9219 268.7428 613.6558 269.275 613.7547 269.5976 613.3973 270.3928 612.8842 270.7087 612.3251 270.563 611.2881 269.7107 610.7088 269.4137 609.415 268.9905 608.7573 268.5991 608.4712 267.8479 608.8679 266.6804 608.5134 265.9627 607.2586 265.0607 606.4001 263.9409 606.2729 263.5599 605.296 261.9766 605.0624 261.0523 605.4434 260.2849 605.3444 259.8621 604.9373 259.7469 604.1343 259.8318 603.1408 258.7613 602.9569 258.4159 603.2261 257.3669 604.0813 256.5166 604.7696 256.235 605.5917 256.1886 606.3653 255.975 606.6908 255.4896 606.9451 254.4803 606.9273 253.7929 606.4444 252.562 605.747 251.6004 604.9092 250.9212 604.0457 249.7807 603.7069 248.9963 603.0352 248.0599 602.8087 247.0171 602.8356 246.2622 603.0315 246.0331 603.9629 246.2145 604.6462 245.976 604.611 245.438 603.4448 244.3538 602.9826 243.6842 603.0476 242.5763 603.2191 241.8495 602.6509 241.3145 600.9541 240.9521 600.2658 240.7007 599.7171 239.8878 598.9294 239.496 598.8594 239.1908 597.5238 239.3655 596.8604 239.0926 596.7593 238.7866 597.0745 237.6758 596.691 237.1118 595.3161 236.4123 594.2149 235.6557 593.7825 235.1649 593.1932 235.1885 592.7327 234.9641 591.4542 234.6443 591.2774 234.2662 591.3735 233.8099 589.4374 232.7364 588.6853 233.0951 587.9183 233.8123 587.0751 234.217 586.1909 234.1818 584.9767 233.662 584.0772 232.1711 584.0482 231.8605 584.6806 231.3023 585.1867 231.2965 586.0994 230.7254 585.4074 230.0632 583.8825 230.3667 583.1296 230.3485 582.6637 230.0607 581.6673 229.022 580.8825 228.6774 580.6378 228.231 579.1262 228.0873 578.4325 227.7262 577.7835 227.1402 577.593 226.244 576.4442 225.7309 575.8772 225.9416 573.9519 224.9179 572.941 224.1596 571.6236 222.2985 570.9681 221.7667 569.6598 221.3054 569.1666 220.96 568.3532 219.9694 567.9378 219.0376 567.5237 217.1532 567.5821 215.4345 567.7601 214.7347 568.253 213.9022 568.5255 213.1874 570.7792 211.1524 571.1979 210.4607 571.4464 209.2597 572.2291 206.9447 573.7241 205.0107 574.6228 204.4475 575.0659 204.0209 575.6043 202.7702 575.6499 202.207 575.447 201.271 574.9251 200.3516 574.3453 199.7221 574.2294 199.3494 574.511 198.5046 575.4138 197.8958 576.1179 196.8273 577.9111 195.7754 578.1347 195.4565 578.4909 194.1437 578.3161 193.6525 576.7349 192.9137 576.1179 192.5327 574.8257 192.0647 573.7726 191.2472 572.6457 190.7523 571.26 190.5573 570.194 190.5544 568.6621 189.864 567.1427 189.2569 566.1802 188.9628 564.3398 188.7471 563.4572 189.1165 563.0307 189.712 562.8422 190.4773 561.9941 191.4386 561.6002 191.6021 560.4792 192.5865 559.5461 192.8433 558.8491 192.8359 557.1209 192.0233 556.508 191.2108 555.6184 190.5183 555.0159 188.9798 554.9231 187.7494 553.5403 185.4737 553.5005 185.0488 554.7347 183.753 554.803 183.2461 554.5976 182.5342 554.0008 181.8028 553.6409 180.9882 553.5858 180.1077 553.2993 179.2364 553.3113 178.5531 552.9025 177.01 552.401 176.566 551.8829 176.4194 551.2182 175.8152 550.8861 175.2855 550.2649 174.8672 550.1493 174.5943 549.1807 174.1388 548.2174 173.313 547.4305 172.8603 545.9947 172.1989 545.4058 171.6411 544.8682 171.5218 544.3286 171.1723 544.1874 170.8132 543.7368 170.5358 542.7363 170.2608 541.8529 169.8955 540.0108 168.8403 539.1341 167.9946 538.9328 166.927 538.4768 166.5869 537.4415 165.1027 535.4553 164.8082 534.6208 164.016 534.3628 162.8407 533.8961 162.3516 532.6238 161.9374 531.6055 161.3183 530.1597 159.8402 529.0689 159.2658 528.95 159.0865 526.987 157.7894 526.2722 157.0754 526.6147 154.8987 526.3567 154.2643 525.9425 153.8141 523.8077 152.7154 523.5372 152.3961 523.0489 151.0526 523.2283 150.4053 524.1655 149.524 524.1261 148.774 523.0738 147.6753 521.1008 144.4885 521.3191 143.6197 521.081 143.0598 520.4614 140.6975 520.4022 139.9065 520.5484 139.4683 520.3517 138.4997 520.7033 137.7874 520.6196 136.212 521.2814 135.2512 521.1899 134.4759 522.0554 132.8558 522.4567 131.8176 523.1736 130.9578 524.2259 130.3329 Z"/>
<path d="M 685.5485 75.2496 686.3229 75.9453 687.7559 76.7198 688.6264 76.2485 689.6551 76.0058 690.6619 76.5222 689.8096 77.271 689.0728 77.4859 689.7147 77.9622 692.1167 78.5126 693.8188 78.7818 695.3387 78.8149 695.7197 78.9184 698.1126 78.7271 699.4797 78.508 700.5991 78.1925 700.5925 77.8566 702.0399 77.6528 702.2681 77.8433 704.5164 77.1749 706.096 76.644 709.9499 75.1953 711.0143 74.4789 712.4099 74.0233 714.5055 73.0998 727.1578 73.1325 737.3824 73.1019 743.3705 73.0853 757.3054 73.1491 764.9177 73.1478 777.3174 73.1056 782.9459 73.1255 788.4453 73.1102 791.2051 73.1358 798.1179 73.1006 798.1042 76.6486 798.1655 82.6254 798.2169 94.1248 798.2276 99.5562 798.2243 105.0311 798.2715 112.8422 798.2732 119.292 798.2558 125.2162 798.175 128.9542 798.1991 133.1552 798.1059 137.7985 798.0181 140.6544 797.8971 146.1915 797.7742 153.6923 797.7684 160.2523 797.7091 167.643 797.5559 174.7745 797.5265 178.0018 797.5265 183.0436 797.0693 183.191 795.848 184.1758 794.681 184.6628 794.3372 185.2414 794.9298 186.0026 795.4554 186.3538 796.4112 187.5233 796.8241 187.9064 797.1248 188.68 796.9053 189.1529 795.6807 190.1083 795.1411 190.7101 795.1713 191.1797 795.8451 191.6506 797.8334 191.755 798.8526 192.2271 799 192.5754 798.8459 193.0305 798.2268 193.5941 797.394 194.0712 797.1206 194.4261 797.2391 194.9231 797.6777 195.4743 797.8793 195.9941 797.7551 196.337 796.8842 196.3453 796.005 196.0997 794.4714 195.9556 792.8542 196.6256 792.2471 196.7188 790.9599 196.5527 790.0807 196.7416 789.5912 197.0733 787.0997 198.1145 785.8975 198.7261 784.5685 199.7379 783.9966 200.0253 782.9335 200.3297 782.1889 200.3351 781.2467 200.0245 780.7166 199.6099 779.8701 198.5182 779.3587 198.2727 778.1005 198.0797 777.4039 198.1111 775.5101 198.5257 774.6611 198.5696 773.0609 198.3004 772.1026 198.616 771.355 199.4488 771.2151 200.5778 771.9087 201.5207 771.8835 203.5471 772.0152 204.0482 772.8579 205.4865 772.8671 206.1997 772.5573 206.8109 772.1407 207.1286 771.0904 207.5224 770.434 207.9502 770.1482 208.6004 769.4185 209.4341 767.8585 209.9377 766.2553 210.0532 765.7372 210.1692 764.9144 210.6326 764.3805 211.3035 763.655 213.0744 763.6243 213.8571 763.0089 215.2788 762.1235 216.3469 761.7698 216.5892 759.4842 217.6701 758.9785 217.7322 758.5602 217.5375 758.0508 216.9743 757.2963 216.8749 756.2783 217.1068 755.7317 217.3636 755.3714 218.167 755.3051 218.8959 754.8173 219.5826 753.6237 220.4034 752.9031 221.1944 752.4434 222.151 752.4144 223.0249 752.5921 224.2246 752.5511 225.2571 752.1026 226.2643 751.8789 227.638 751.1712 228.3722 750.6746 228.5934 749.6575 228.6783 747.8096 228.9864 747.3201 229.2357 747.282 230.0524 747.0832 230.5092 746.6579 230.5084 745.9787 229.8354 745.3505 228.7905 744.1855 228.2699 742.823 228.185 741.7359 228.4165 741.2526 228.3573 739.5385 227.6694 739.0129 227.1981 738.3126 226.9277 737.6119 226.4601 737.3348 226.0328 737.1244 224.746 737.4326 223.4374 737.4085 223.116 736.7472 222.2803 735.5308 221.6648 734.2636 220.7351 733.7401 220.5926 733.1843 220.8183 733.0042 221.1289 733.034 221.7282 733.2696 222.0264 735.1664 222.4347 735.2695 223.0679 734.7854 223.4734 733.1214 223.4158 732.6286 223.6643 732.2562 224.3617 731.8893 224.4441 730.7844 223.6026 730.0373 223.557 729.3627 224.0863 729.6646 224.8334 730.6891 225.2326 730.7413 226.0439 729.9379 226.7347 729.1216 226.9116 727.9558 226.9306 727.2419 227.0602 726.9238 227.6711 726.9155 230.1414 727.1889 230.8219 727.6664 231.458 727.5019 231.8854 726.5432 232.2626 725.2138 232.0494 724.2895 232.0908 723.8227 232.6875 723.8948 234.318 723.6252 234.6953 722.232 235.3393 721.4033 235.2805 721.2286 234.75 721.9633 233.182 721.7421 232.5273 720.7917 232.35 720.2545 232.4254 718.9106 233.252 718.3723 233.2015 717.5635 232.4333 716.3624 230.6264 715.7417 229.2821 714.9014 228.8721 714.5609 228.8696 713.2167 229.3521 712.0152 230.3013 711.2926 231.0554 710.5918 231.4489 708.1223 231.7164 706.824 232.1525 705.8661 232.6942 705.336 233.3866 705.435 234.1764 705.1203 234.8854 704.8556 235.9712 704.3218 237.0281 703.4972 237.6133 702.6487 237.8328 701.9695 237.728 701.7367 237.4311 701.3723 236.4384 700.6712 235.5401 700.1763 235.3558 698.8755 235.295 698.101 235.0738 696.6801 234.3201 695.8883 233.6736 694.7308 233.0313 693.9969 232.7294 692.9661 232.5049 691.5034 231.4928 689.916 231.1134 688.7063 231.2099 687.9724 231.5719 686.4973 232.5877 686.0678 232.7008 685.7042 232.4444 684.4204 231.9143 683.8162 231.3963 683.4675 230.696 683.3171 230.0043 682.9858 229.8428 682.3439 229.9629 682.1451 230.9113 681.3417 231.5822 681.2257 232.0788 681.5632 232.6805 682.7514 233.4976 682.8694 234.5831 682.1294 235.507 681.7649 235.7845 680.5035 236.0359 679.4043 235.9021 679.1231 235.6043 679.0221 234.7926 679.7481 233.9122 679.6495 233.1414 678.9231 232.8221 677.8194 233.2197 676.5986 233.1887 675.6829 233.3435 674.7975 233.8881 674.3196 233.9913 672.8535 233.9395 672.4141 233.6989 672.2319 233.2508 671.7494 232.9402 671.4048 232.3434 670.9178 231.9719 670.2904 231.8104 669.7802 231.9363 668.3899 233.3481 668.3994 234.1826 669.3619 235.0535 669.6568 235.5509 669.8212 236.373 669.6965 236.7929 668.5316 237.3064 668.1352 238.133 667.4925 238.2175 666.815 237.6054 665.9573 237.205 665.2102 237.0285 664.6763 237.1408 664.3686 236.7142 662.9829 237.0679 662.3915 236.6571 662.0735 236.0951 662.3721 235.859 663.3436 236.1622 664.1694 236.1833 664.7447 235.8201 664.4577 235.3724 663.4526 235.1252 663.0475 234.7872 662.5849 233.8318 661.9045 233.2284 662.2656 232.7306 662.8782 233.1406 663.5441 233.3299 664.7368 233.339 665.2843 233.1804 665.0064 232.4329 663.1374 232.1521 662.9817 231.7843 664.3413 231.1966 664.3177 230.6119 664.9729 230.5092 665.3017 230.2114 665.3166 229.7757 664.931 228.993 664.871 228.1863 665.5212 227.6189 665.107 227.3866 664.5583 227.5539 664.1044 227.2445 664.374 226.7078 665.7821 226.6912 667.1943 226.0468 667.6229 225.1697 667.4022 224.6823 665.6425 225.3486 665.3348 225.2944 665.1443 224.7978 665.2938 224.5381 665.9072 224.3327 666.9048 224.213 666.8953 223.8213 667.1893 223.3533 667.6648 223.3218 668.0955 223.5819 668.8409 222.5329 668.58 222.3519 668.4396 221.6947 667.5144 221.1898 666.8386 220.6328 666.4903 220.1305 666.3014 218.5244 666.588 218.2055 667.4846 219.0057 667.6536 218.4039 668.071 218.2519 667.8284 217.468 668.228 217.2721 668.4326 216.7151 668.9445 216.4571 669.5918 216.5788 669.1797 217.3992 669.6249 217.7028 670.4817 217.0103 670.7716 216.2471 671.2669 215.893 671.6165 216.1792 671.3763 216.8165 671.8571 217.4212 672.4228 217.2257 672.8382 216.4277 672.7649 215.3724 673.179 214.4588 673.8686 213.7867 674.9482 213.4678 676.3873 211.8875 676.5617 210.7867 677.0135 210.3336 676.4735 209.8159 676.6246 209.1512 677.6795 208.952 678.5433 208.6141 679.1571 208.1834 679.7646 207.9975 680.1593 207.6256 679.8876 206.4171 680.303 205.7897 680.2686 205.2956 680.8393 204.4533 681.4133 204.2267 681.27 203.7521 681.4763 203.1959 681.5695 202.342 682.6644 201.1861 684.6581 200.7633 685.2507 200.497 685.732 199.952 685.8521 199.1597 686.6894 198.0664 686.5876 197.4436 686.6874 196.5821 685.4118 194.9442 685.6462 194.5939 685.4719 193.6741 684.4523 193.228 684.7181 191.7566 685.3994 191.2348 685.7643 190.5925 686.0393 189.2995 685.3224 188.5748 683.3006 187.8761 683.2674 187.3452 683.6575 186.608 683.4368 186.0013 683.5379 185.0393 682.553 184.1137 681.7136 183.6871 681.6105 183.2473 681.0671 182.9889 681.0675 182.4961 680.6161 182.0877 680.4981 181.411 680.7283 180.507 681.5413 180.1732 682.8744 179.2194 683.4563 178.3671 683.0848 177.3243 682.6723 177.164 682.1733 176.5979 681.9865 175.7237 682.5046 175.1372 682.3861 174.4535 682.8549 173.5867 683.3001 173.3171 684.2912 173.3109 684.7215 172.7965 685.2333 173.0044 685.2458 169.3281 685.1899 159.8771 685.1679 150.8381 685.242 139.8676 685.2996 135.6169 685.4338 126.8578 685.4553 123.8247 685.4619 115.4806 685.4764 110.6158 685.4379 99.5533 685.4354 92.2355 685.4942 88.8118 685.481 85.1082 685.5236 81.2546 685.5112 75.4852 685.5485 75.2496 Z"/>
<path d="M 83.9009 145.8705 92.6272 145.8829 101.4881 145.8896 110.4799 145.9007 120.471 145.8925 130.0488 145.9094 140.5675 145.9057 149.4578 145.9268 161.5084 145.9322 169.247 145.9359 176.5992 145.9401 184.3883 145.9206 193.5792 145.9165 203.2523 145.9186 212.9857 145.907 222.2786 145.9078 223.1114 145.8925 231.3843 145.902 240.3508 145.8937 247.5717 145.9057 254.5222 145.9132 261.3173 145.9157 271.7718 145.9194 277.827 145.9128 282.9594 145.9355 291.0562 145.9434 301.1566 145.9413 308.7507 145.95 321.914 145.972 328.134 145.9774 336.2602 145.9765 343.4484 145.979 360.3995 145.9981 363.173 145.9981 363.4123 146.6458 364.7633 147.2653 365.2702 147.8662 365.944 148.2779 366.8207 148.2994 367.6047 148.7235 367.4204 149.797 367.9136 150.1109 368.5087 150.137 369.3213 149.8504 369.9851 150.0599 370.1177 150.8977 370.6324 151.2096 372.564 151.7248 374.3762 151.5666 374.7837 151.3189 374.8657 150.6882 375.1643 150.2484 375.7822 150.1229 376.343 150.2633 377.6268 150.0703 378.265 150.2169 378.9264 150.7147 378.7789 151.2742 378.3188 151.9368 378.5222 152.2188 379.3811 152.7841 380.6231 152.91 381.0327 153.2973 381.0617 153.9955 380.7411 154.5198 380.3734 154.6494 379.0216 154.7053 378.7263 154.849 378.663 155.3725 379.3865 155.8985 380.1166 155.8852 380.8513 155.4711 381.4427 155.4533 381.7077 155.8094 381.6166 156.6418 381.0907 157.1595 379.9737 157.42 379.3231 157.2299 378.4576 156.7002 377.792 156.53 377.1655 157.092 377.2251 158.7142 376.5968 159.3395 375.5669 159.4261 374.7958 159.8531 373.8896 160.9948 373.6565 161.6666 374.0172 162.4969 373.584 163.3683 372.7644 163.5261 372.2335 163.3492 371.4905 163.647 371.2375 164.4711 371.6794 165.3238 372.7333 166.1438 373.478 166.4507 373.8764 166.9365 373.9886 167.7416 374.5568 168.3251 375.2853 168.6593 376.3475 168.9335 376.8184 169.3455 376.9091 169.7406 378.1648 170.6124 378.1942 171.1011 378.6882 171.4448 379.1247 171.4887 380.0064 171.1445 380.7018 171.2688 380.9478 171.8527 380.4574 172.336 379.9783 172.4872 379.6412 172.9862 379.748 174.0079 380.0797 174.9799 380.9797 175.7688 382.3049 176.2931 382.9199 176.7988 383.1605 177.4009 382.7779 178.1418 383.238 178.7204 383.7403 178.8562 384.7475 178.8115 385.2362 179.1043 385.7497 179.9615 386.8513 180.4047 387.779 180.355 388.893 179.8125 389.8625 179.9947 389.9201 180.8851 390.8482 181.0714 391.8504 180.7857 392.8402 180.9927 392.923 181.5974 392.2148 182.4671 392.161 188.1652 392.1904 194.5533 392.0148 203.1288 391.9523 212.1185 391.9812 215.7874 391.9738 220.5135 391.932 222.6232 391.927 227.2955 391.8939 231.5507 391.7721 238.2279 391.7613 240.3313 391.8106 248.6418 391.7808 253.2222 391.7473 262.4218 391.7622 270.2847 386.8248 270.295 382.02 270.2863 376.1355 270.259 367.8519 270.2577 359.0614 270.271 348.4292 270.2677 342.4789 270.276 334.4931 270.2867 328.6786 270.2822 318.1984 270.2718 313.8077 270.2958 305.3121 270.2727 291.8671 270.2838 280.6559 270.2834 273.968 270.2938 266.7264 270.2772 259.8861 270.293 250.293 270.307 241.8545 270.3236 237.0356 270.324 229.1425 270.2809 222.1084 270.2785 209.0701 270.2565 208.2273 270.2718 198.7924 270.2569 194.7388 270.2321 191.3922 270.2615 183.4221 270.2561 183.0489 270.2312 174.0311 270.1708 169.0701 270.172 160.519 270.1534 146.0275 270.2139 138.4521 270.2785 135.1489 270.2772 129.7158 270.3161 126.934 270.3149 112.6396 270.394 102.5434 270.4429 90.084 270.5004 84.2944 270.5261 84.3043 264.3695 84.3056 255.6366 84.3242 254.7085 84.3035 248.0724 84.3221 242.0599 84.265 236.9623 84.195 226.9401 84.2111 224.1455 84.2049 218.4718 84.1668 210.0383 84.1772 201.0942 84.1639 195.1401 84.1151 185.4638 84.0372 174.8577 83.9991 169.8802 83.9916 165.0927 83.9486 159.4331 83.908 152.2184 83.9009 145.8705 Z"/>
<path d="M 556.3871 42.1123 555.845 42.8073 555.9237 43.3539 557.1536 44.1656 557.8991 44.4721 559.373 44.8779 559.7996 45.2424 559.8936 45.736 560.3119 46.062 562.2972 46.7896 562.8348 47.2203 563.2435 47.2762 563.7608 47.8701 564.6272 48.4594 565.1788 49.2198 565.7839 49.8062 565.1651 51.6479 565.6435 52.6319 566.4171 53.2605 566.8122 53.8329 568.2265 54.6624 569.4146 54.8442 569.8495 55.1448 571.3238 55.7636 572.6507 56.0692 574.3342 56.8474 574.6688 57.7477 575.2457 57.9763 575.929 57.9854 576.2632 58.3366 576.2425 59.5422 576.0371 60.0321 576.1978 61.4269 576.732 61.9019 577.2091 63.0358 576.9536 63.9436 576.2947 64.7736 576.2239 65.4511 576.7312 66.028 576.6492 67.0381 575.9675 68.2875 575.8445 69.076 575.3906 70.0836 575.5285 70.9571 575.225 71.3223 573.8049 71.7377 572.1057 72.6082 571.4704 72.8049 570.4703 73.5226 569.9551 74.1757 569.864 74.8355 570.0338 75.2016 569.977 75.8087 569.1558 76.4411 568.786 77.7912 568.9483 79.7927 568.7951 80.24 567.9295 80.5796 566.5297 80.886 565.9127 81.1718 565.5234 81.6315 565.0885 81.8261 563.9 82.9029 563.3657 83.0602 562.2765 83.1306 560.6076 82.7952 559.9735 82.8739 559.518 83.1514 558.3584 83.4205 557.9152 84.1163 556.8136 84.7582 555.8487 85.4457 554.9956 85.4995 553.9718 85.7517 552.4652 85.9426 550.807 85.8958 548.3292 85.7153 547.4951 85.8341 545.7176 86.7287 544.4939 87.1325 543.6751 87.0182 542.624 86.6115 542.2211 86.616 541.3534 86.9366 540.4448 87.0414 539.6153 87.5673 539.4596 88.6283 538.9013 89.2984 538.6326 90.518 538.563 91.6035 538.3857 92.0843 537.7844 92.7022 537.4071 93.5197 536.8667 94.2295 536.889 94.587 538.8665 96.3214 539.8754 97.7038 540.4688 97.8185 541.2814 97.7021 542.0239 98.1353 542.8029 99.1959 543.0079 99.6328 543.806 100.5824 543.702 101.66 543.9874 103.1472 543.8341 104.3151 543.3293 105.422 543.5848 106.3137 543.1313 107.6919 542.88 107.9334 541.6578 108.3893 541.2006 108.702 540.7028 109.3874 539.7466 110.036 539.2587 110.863 537.8656 111.8466 537.5848 112.3858 537.7981 113.7073 537.6146 114.2283 537.1147 114.8992 536.8025 115.966 536.9599 117.1318 536.4633 118.286 535.8785 118.6281 533.8522 119.605 531.3313 119.5599 528.9016 120.0635 527.1535 120.7485 526.6921 121.0752 525.8688 122.2079 524.9689 122.8287 524.7734 123.5228 525.5243 123.9216 526.3115 124.7722 526.5124 125.2895 526.4834 125.9467 525.9355 127.0972 525.8187 127.9669 526.1185 128.6916 526.0345 129.7688 525.5122 130.0566 524.4914 130.1664 524.2259 130.3329 523.3223 130.002 521.5303 130.0993 521.3609 129.4321 519.8696 128.9869 519.7889 128.6096 520.1015 128.1363 519.4994 127.7429 519.8928 127.4265 519.7044 126.9891 518.2449 126.9067 517.5612 126.4913 517.2908 125.82 516.9694 125.4982 516.0455 125.0928 515.828 124.5855 515.9606 123.6727 515.7055 123.4897 513.3635 123.0946 512.987 122.8109 513.1974 122.111 513.069 121.8368 512.1082 121.3548 511.4005 120.5849 505.632 120.816 502.3474 120.9232 496.19 121.074 486.4656 121.2405 480.1132 121.3602 476.1503 121.4749 471.7434 121.5718 468.8147 121.6091 461.1871 121.6575 453.1441 121.86 447.9752 121.9449 440.4727 121.9814 436.0617 121.9607 430.1789 122.0663 427.6986 122.0725 421.5648 122.1433 414.032 122.2721 407.7363 122.3131 397.0913 122.3628 391.1791 122.3429 376.2858 122.1565 366.7664 122.0265 361.1226 121.9739 354.182 121.8915 349.3594 121.8029 344.2324 121.7623 344.7496 121.4463 344.8275 120.7746 344.0485 120.1384 343.9971 119.5185 343.2451 118.6902 341.8606 118.3651 341.0369 117.9402 340.8244 117.2486 340.3502 116.6746 339.3646 116.2803 339.1273 115.6894 339.3455 115.0276 339.9112 114.5385 340.6236 114.2904 341.2812 113.8411 341.3263 113.2551 340.9979 112.7105 340.9905 112.1344 341.2692 111.403 340.8596 110.6236 340.8302 110.2029 341.2054 109.8773 341.7744 109.761 342.3091 109.3783 342.2172 108.6039 341.3003 107.8294 341.1412 107.0716 341.6361 105.7281 341.4204 105.3024 340.18 104.6944 339.9315 104.195 340.3279 103.5323 340.2508 102.9513 339.5174 102.3769 339.575 101.7023 340.0984 101.2558 340.2173 100.9233 340.0806 99.7016 339.4097 98.6207 339.3517 98.1692 339.8313 97.6218 340.6231 97.7344 341.0994 97.3368 340.7308 96.931 340.1262 96.786 338.2667 96.9475 337.5917 96.4796 337.6372 95.8376 338.0431 95.349 338.1963 94.7278 337.7863 93.8788 337.4798 92.9304 337.5295 92.2264 338.4241 92.1228 338.7065 92.8285 339.0759 93.0584 339.7907 92.5949 339.5712 91.6424 339.1364 91.3691 337.6041 91.2407 336.4693 90.5077 336.3161 90.1225 337.3846 89.4806 337.455 89.0582 337.1402 88.1682 337.3933 87.7628 337.2943 86.7999 337.8157 86.1841 337.8281 85.883 337.3047 85.3765 336.7439 85.2784 335.9562 85.3885 335.2323 85.1289 334.3316 85.0228 333.7174 84.4315 334.8236 83.3804 334.5461 82.2755 333.8445 81.969 333.3488 82.2365 333.1061 83.3452 332.8411 83.5841 332.3031 83.5104 331.5005 82.8399 330.8114 82.5612 330.543 81.923 330.6499 81.4642 331.1646 80.8015 331.0719 80.4259 329.9964 79.8656 329.658 79.3218 329.7992 78.7429 330.3562 78.2653 330.5902 77.7742 330.3919 77.2085 329.5164 76.5115 329.6501 75.8339 330.1732 75.5979 330.7754 75.7014 331.3808 75.5258 331.5245 75.2305 331.2268 74.8508 330.2771 74.4342 330.1939 73.7637 331.0201 73.3868 331.2839 73.0435 331.3154 72.3717 331.7763 71.9125 331.6417 71.3078 330.0709 70.5968 330.0576 69.7826 329.7143 69.1808 328.9254 68.8387 328.5431 68.4776 328.4243 67.9409 327.8275 67.2364 327.9377 66.8952 328.6351 66.6749 328.8691 66.1866 328.5841 65.7633 328.9196 65.1492 329.1631 64.3437 328.6777 64.079 328.0437 63.9929 326.8965 64.1354 326.5694 63.814 326.9243 63.1708 326.7379 62.9087 325.6135 62.893 325.0122 63.4019 324.5579 63.1973 324.6345 62.6602 325.2661 62.2324 325.1812 61.7118 324.654 61.4687 323.9209 61.5934 323.2857 61.3072 322.9954 60.669 322.9688 60.1046 323.4426 59.1872 323.4559 58.6041 322.9639 58.0566 321.6846 57.6823 321.2937 57.0971 320.5296 56.6602 320.125 56.2622 320.1117 55.1051 319.6553 54.5646 319.7589 54.259 320.5983 54.1041 321.1201 53.6498 320.8601 53.222 320.805 52.4264 319.7663 51.7199 319.2677 51.0838 319.2047 50.2957 318.6167 49.6749 317.6298 49.197 317.219 48.3153 317.6116 47.5951 317.3407 46.8766 317.472 46.1539 318.4742 45.2594 318.76 44.6837 318.5405 43.52 318.1222 43.122 317.5714 42.9775 316.0763 42.8516 315.6274 42.7749 314.9238 42.3169 314.2007 41.6216 314.6517 41.4617 314.7743 40.141 313.8611 39.9443 314.3742 39.3136 314.0359 38.9127 313.1604 37.2872 312.7111 36.6167 312.2509 36.3985 312.2509 36.0266 311.3121 35.4563 310.7012 34.8985 309.8274 34.6566 308.4102 33.9372 308.6658 33.5889 308.0342 32.6455 308.4881 31.7982 308.3046 31.3514 308.8712 30.7007 309.4895 30.7422 309.8738 30.3301 310.061 29.6977 310.5919 28.8947 310.5161 28.4619 311.2173 28.5356 311.9842 27.9157 311.7308 27.4233 311.8985 26.9557 312.2522 26.7896 312.3284 25.8607 312.1176 24.8834 313.2031 24.0894 313.8069 23.4384 313.565 22.9431 312.9811 22.6826 313.5157 21.9007 313.91 21.8336 314.1647 21.3545 313.3646 20.7337 313.3948 19.6892 314.2189 19.6532 314.7759 19.1732 315.4411 19.1049 315.6746 18.6485 315.4547 17.8248 316.3323 17.0387 316.1625 16.2146 315.8755 15.8659 315.2054 15.5329 315.2733 14.218 314.9631 14.0685 315.0298 13.2626 314.7846 12.5623 314.4301 12.4725 313.0217 12.7412 312.7069 12.477 311.5444 12.3652 310.9824 12.1672 310.8715 11.8604 311.6264 11.5158 311.6418 11.0814 311.1622 10.9791 310.2449 10.396 310.6064 10.2104 310.4921 9.407 310.9576 9.5172 312.1201 9.5163 312.5611 9.3312 312.7612 8.816 312.3739 7.8221 312.8138 7.3773 312.6875 6.5118 312.9368 6.2426 312.8241 5.4081 312.2824 5.3957 310.7725 4.3947 310.7062 3.8758 309.9165 3.7768 309.5702 3.1349 309.6767 2.8272 310.3161 2.3083 310.4652 1.8208 310.2975 1.4684 309.7226 1.0306 315.7554 1.0335 326.3068 1.036 332.3251 1.0422 345.2607 1.0543 354.6218 1.0555 357.1092 1.0265 365.5468 1.0306 365.8007 1 369.5238 1.0311 375.3503 1.0137 381.9637 1.0244 397.8724 1.0356 407.0849 1.036 413.5073 1.0373 418.5652 1.0663 425.8114 1.0696 436.7285 1.0716 447.5118 1.0762 456.7309 1.0675 467.4517 1.0675 480.9448 1.0356 488.6241 1.0315 502.2576 1.0298 514.6188 1.0311 521.2599 1.0211 530.7544 1.0087 532.5795 1.0269 532.6801 1.6792 532.4681 2.2379 531.9778 2.7054 532.1223 3.3051 533.1829 4.3711 533.4094 5.3845 533.0616 6.2273 532.7013 6.6045 533.2363 7.299 534.0953 7.4303 536.2484 8.2412 537.1545 8.7672 538.0486 9.6692 538.6255 10.5173 538.587 10.9008 539.1974 11.2387 539.0049 11.6864 538.3124 12.3035 536.6629 13.4585 536.4426 13.9754 535.8537 14.7167 535.6619 15.2791 535.1269 15.8369 534.3379 16.1798 534.227 16.4192 534.3404 17.4591 534.1636 18.9641 534.3611 20.1535 535.0735 22.1095 535.112 22.6582 535.5265 23.2748 535.3928 24.2315 535.6193 24.7968 535.5418 25.4901 536.7333 26.0703 537.4311 26.5987 537.5512 27.5599 537.8105 27.9745 537.6568 28.5911 538.3377 28.893 538.3613 29.7689 538.8835 31.8169 539.4724 32.6484 540.1288 32.6344 540.3661 33.0721 540.8817 33.3703 541.7804 33.6134 542.4 34.2251 543.5662 34.7282 544.2031 34.8682 544.8612 34.785 545.7263 35.1643 547.7043 35.6377 551.142 36.1918 553.1829 36.6341 553.9093 37.0482 554.2683 37.7212 554.5595 38.663 554.8742 39.0883 555.6131 39.6474 555.9195 40.397 556.2715 40.6372 556.6401 41.6891 556.3871 42.1123 Z"/>
<path d="M 316.0763 42.8516 317.5714 42.9775 318.1222 43.122 318.5405 43.52 318.76 44.6837 318.4742 45.2594 317.472 46.1539 317.3407 46.8766 317.6116 47.5951 317.219 48.3153 317.6298 49.197 318.6167 49.6749 319.2047 50.2957 319.2677 51.0838 319.7663 51.7199 320.805 52.4264 320.8601 53.222 321.1201 53.6498 320.5983 54.1041 319.7589 54.259 319.6553 54.5646 320.1117 55.1051 320.125 56.2622 320.5296 56.6602 321.2937 57.0971 321.6846 57.6823 322.9639 58.0566 323.4559 58.6041 323.4426 59.1872 322.9688 60.1046 322.9954 60.669 323.2857 61.3072 323.9209 61.5934 324.654 61.4687 325.1812 61.7118 325.2661 62.2324 324.6345 62.6602 324.5579 63.1973 325.0122 63.4019 325.6135 62.893 326.7379 62.9087 326.9243 63.1708 326.5694 63.814 326.8965 64.1354 328.0437 63.9929 328.6777 64.079 329.1631 64.3437 328.9196 65.1492 328.5841 65.7633 328.8691 66.1866 328.6351 66.6749 327.9377 66.8952 327.8275 67.2364 328.4243 67.9409 328.5431 68.4776 328.9254 68.8387 329.7143 69.1808 330.0576 69.7826 330.0709 70.5968 331.6417 71.3078 331.7763 71.9125 331.3154 72.3717 331.2839 73.0435 331.0201 73.3868 330.1939 73.7637 330.2771 74.4342 331.2268 74.8508 331.5245 75.2305 331.3808 75.5258 330.7754 75.7014 330.1732 75.5979 329.6501 75.8339 329.5164 76.5115 330.3919 77.2085 330.5902 77.7742 330.3562 78.2653 329.7992 78.7429 329.658 79.3218 329.9964 79.8656 331.0719 80.4259 331.1646 80.8015 330.6499 81.4642 330.543 81.923 330.8114 82.5612 331.5005 82.8399 332.3031 83.5104 332.8411 83.5841 333.1061 83.3452 333.3488 82.2365 333.8445 81.969 334.5461 82.2755 334.8236 83.3804 333.7174 84.4315 334.3316 85.0228 335.2323 85.1289 335.9562 85.3885 336.7439 85.2784 337.3047 85.3765 337.8281 85.883 337.8157 86.1841 337.2943 86.7999 337.3933 87.7628 337.1402 88.1682 337.455 89.0582 337.3846 89.4806 336.3161 90.1225 336.4693 90.5077 337.6041 91.2407 339.1364 91.3691 339.5712 91.6424 339.7907 92.5949 339.0759 93.0584 338.7065 92.8285 338.4241 92.1228 337.5295 92.2264 337.4798 92.9304 337.7863 93.8788 338.1963 94.7278 338.0431 95.349 337.6372 95.8376 337.5917 96.4796 338.2667 96.9475 340.1262 96.786 340.7308 96.931 341.0994 97.3368 340.6231 97.7344 339.8313 97.6218 339.3517 98.1692 339.4097 98.6207 340.0806 99.7016 340.2173 100.9233 340.0984 101.2558 339.575 101.7023 339.5174 102.3769 340.2508 102.9513 340.3279 103.5323 339.9315 104.195 340.18 104.6944 341.4204 105.3024 341.6361 105.7281 341.1412 107.0716 341.3003 107.8294 342.2172 108.6039 342.3091 109.3783 341.7744 109.761 341.2054 109.8773 340.8302 110.2029 340.8596 110.6236 341.2692 111.403 340.9905 112.1344 340.9979 112.7105 341.3263 113.2551 341.2812 113.8411 340.6236 114.2904 339.9112 114.5385 339.3455 115.0276 339.1273 115.6894 339.3646 116.2803 340.3502 116.6746 340.8244 117.2486 341.0369 117.9402 341.8606 118.3651 343.2451 118.6902 343.9971 119.5185 344.0485 120.1384 344.8275 120.7746 344.7496 121.4463 344.2324 121.7623 343.9048 122.0526 344.316 123.2909 344.0816 123.7729 344.5856 124.2148 345.4081 124.3001 346.0214 124.1266 346.595 124.3987 347.0663 124.1117 347.193 122.9331 348.1207 122.6974 348.9279 123.7129 348.5373 124.5743 346.952 125.0729 347.169 125.5562 347.0849 126.1671 347.2353 126.5584 348.1211 127.0844 348.6823 127.6981 348.761 128.2415 348.5468 128.772 349.2728 129.9771 349.3358 130.682 349.969 131.3873 350.152 131.8818 349.6919 132.3605 348.867 132.6388 348.7179 133.1242 349.2149 133.3383 350.6598 132.9954 351.8463 133.5913 352.4116 133.61 353.0266 133.94 352.9839 135.0901 354.3253 135.6666 355.634 135.6873 356.1653 135.9461 356.4875 136.5594 356.3322 137.157 355.9657 137.6876 356.215 138.4612 356.859 138.9921 357.8695 139.4249 358.0902 140.266 358.5802 140.5898 359.1931 140.6549 359.6503 141.0611 359.6623 141.3941 358.9343 142.2075 358.9666 142.9202 358.4787 143.5567 358.8121 144.4069 359.2647 144.732 360.0806 144.8753 360.8666 144.6935 361.5876 144.8273 362.0155 145.2071 363.0106 145.6092 363.173 145.9981 360.3995 145.9981 343.4484 145.979 336.2602 145.9765 328.134 145.9774 321.914 145.972 308.7507 145.95 301.1566 145.9413 291.0562 145.9434 282.9594 145.9355 277.827 145.9128 271.7718 145.9194 261.3173 145.9157 254.5222 145.9132 247.5717 145.9057 240.3508 145.8937 231.3843 145.902 223.1114 145.8925 222.2786 145.9078 212.9857 145.907 203.2523 145.9186 193.5792 145.9165 184.3883 145.9206 176.5992 145.9401 169.247 145.9359 161.5084 145.9322 149.4578 145.9268 140.5675 145.9057 130.0488 145.9094 120.471 145.8925 110.4799 145.9007 101.4881 145.8896 92.6272 145.8829 83.9009 145.8705 83.8935 136.2517 83.9188 131.9845 83.9014 123.7241 83.9196 114.9547 83.9063 104.4857 70.9662 104.4944 62.9849 104.4923 54.008 104.4844 50.1884 104.5018 41.4079 104.489 29.5975 104.508 28.189 104.4782 24.0286 104.5163 13.5488 104.4993 7.0957 104.5267 1.0108 104.5259 1 98.0715 1.0348 93.1851 1.0485 87.2791 1.0219 78.7863 1.0306 74.2114 1.0199 67.914 1.0377 57.9954 1.0302 52.4766 1.0166 42.4652 1.0385 36.249 1.0269 31.9208 1.0157 21.7322 3.5855 21.6866 6.3254 21.7185 10.9215 21.6995 19.0225 21.7284 27.8747 21.726 39.1239 21.7243 53.2394 21.7574 65.8615 21.7748 82.625 21.7831 92.2566 21.7844 97.9059 21.8966 101.5565 21.9123 106.7332 21.8759 117.9187 21.8436 125.6705 21.8411 127.4397 21.8589 132.9461 21.8283 142.709 21.8357 149.2934 21.786 154.3951 21.8088 163.6159 21.81 172.2507 21.8369 181.3274 21.8444 190.7647 21.8407 202.2012 21.8349 214.429 21.8345 220.9538 21.8254 231.0521 21.8162 231.3863 22.6698 232.3438 23.9283 233.4877 24.7305 234.2745 24.5761 234.8096 24.8316 237.5185 25.8628 238.2039 26.4571 240.1027 26.9333 241.0026 26.9586 242.595 27.8378 243.8403 28.3153 244.6127 28.5025 245.614 28.3903 246.3549 29.1602 247.2391 29.5991 247.7825 30.0679 249.0936 30.8213 249.2208 31.1671 250.2482 31.522 251.6845 31.5609 252.6271 31.2851 253.7635 31.2975 254.4754 30.9422 255.6333 30.0862 256.3141 29.325 256.8405 28.0631 256.8616 27.6076 258.1069 27.2344 258.8014 27.1901 259.2744 27.4808 261.0394 27.9782 263.2762 28.0747 264.6818 28.2822 265.4364 28.2573 266.3296 28.0681 267.4246 27.6953 268.1088 27.6237 269.8411 28.0701 271.086 27.9645 272.205 27.6175 273.0304 27.9534 274.7963 28.1252 275.8403 27.3094 277.5126 27.3396 278.2216 27.7691 278.9832 27.7252 280.412 27.2398 281.1086 27.7409 282.016 27.8618 282.819 27.7455 284.0506 28.1405 284.0734 28.8152 284.4105 29.6542 284.8122 29.8124 286.3267 29.9872 286.8692 30.2228 287.6739 31.2019 288.4902 31.307 290.1372 31.1865 290.9518 31.2739 292.0837 31.5953 293.85 31.6731 294.4016 31.9328 294.7184 32.4985 294.6232 33.326 295.229 33.3748 296.2536 32.9247 296.9726 32.781 297.7992 33.1363 298.8925 33.3193 299.5974 33.683 301.138 34.0089 301.3272 34.2317 301.3053 35.3304 301.6755 35.588 302.884 35.7549 304.3765 35.5524 305.6347 35.8729 306.0476 36.1218 305.8434 36.5811 305.0685 37.6028 305.2711 38.3466 306.1271 39.2357 307.2453 39.7124 308.1034 40.3117 308.3742 41.4563 308.6032 41.9011 309.5346 42.2788 310.3264 42.1392 311.4272 41.6195 312.2443 41.7127 312.7786 42.0399 313.1616 42.7008 313.765 43.1779 314.8319 43.2901 316.0763 42.8516 Z"/>
</g>
</svg>